<?xml version="1.0" standalone="no"?>
<!DOCTYPE svg PUBLIC "-//W3C//DTD SVG 20010904//EN"
 "http://www.w3.org/TR/2001/REC-SVG-20010904/DTD/svg10.dtd">
<svg version="1.0" xmlns="http://www.w3.org/2000/svg"
 width="12.000000pt" height="12.000000pt" viewBox="0 0 222.000000 227.000000"
 preserveAspectRatio="xMidYMid meet">

<g transform="translate(0.000000,227.000000) scale(0.100000,-0.100000)"
fill="#000000" stroke="none">
<path d="M838 2260 c-285 -45 -524 -197 -674 -426 -91 -139 -137 -267 -156
-436 -52 -470 256 -915 722 -1040 123 -33 357 -32 480 1 95 25 225 83 293 129
l44 31 229 -230 c242 -242 262 -257 334 -243 42 9 95 62 104 104 14 72 -1 92
-243 334 l-229 229 33 46 c47 65 89 153 118 246 88 281 48 579 -113 824 -135
205 -338 350 -576 411 -91 23 -280 34 -366 20z m270 -286 c235 -47 440 -228
518 -456 27 -76 29 -94 29 -228 0 -132 -3 -152 -27 -218 -39 -109 -84 -177
-173 -268 -66 -67 -97 -89 -175 -127 -207 -101 -409 -102 -615 -2 -159 76
-281 212 -348 387 -30 80 -32 89 -32 233 0 144 2 153 32 233 126 329 455 514
791 446z"/>
</g>
</svg>
